<?xml version="1.0" encoding="UTF-8"?>
<!DOCTYPE svg PUBLIC "-//W3C//DTD SVG 1.1//EN" "http://www.w3.org/Graphics/SVG/1.1/DTD/svg11.dtd">
<svg xmlns="http://www.w3.org/2000/svg" version="1.1" width="16px" height="16px" style="shape-rendering:geometricPrecision; text-rendering:geometricPrecision; image-rendering:optimizeQuality; fill-rule:evenodd; clip-rule:evenodd" xmlns:xlink="http://www.w3.org/1999/xlink">
<g><path style="opacity:0.933" fill="#9ea590" d="M 2.5,-0.5 C 3.16667,-0.5 3.83333,-0.5 4.5,-0.5C 4.5,0.166667 4.5,0.833333 4.5,1.5C 3.83333,1.5 3.16667,1.5 2.5,1.5C 2.5,1.16667 2.5,0.833333 2.5,0.5C 2.5,0.166667 2.5,-0.166667 2.5,-0.5 Z"/></g>
<g><path style="opacity:1" fill="#99d1e8" d="M 4.5,-0.5 C 5.16667,-0.5 5.83333,-0.5 6.5,-0.5C 6.5,0.166667 6.5,0.833333 6.5,1.5C 5.83333,1.5 5.16667,1.5 4.5,1.5C 4.5,0.833333 4.5,0.166667 4.5,-0.5 Z"/></g>
<g><path style="opacity:1" fill="#0f5c80" d="M 6.5,-0.5 C 7.16667,-0.5 7.83333,-0.5 8.5,-0.5C 8.5,0.833333 7.83333,1.5 6.5,1.5C 6.5,0.833333 6.5,0.166667 6.5,-0.5 Z"/></g>
<g><path style="opacity:0.914" fill="#a1d3e9" d="M 9.5,-0.5 C 10.1667,-0.5 10.8333,-0.5 11.5,-0.5C 11.5,0.166667 11.5,0.833333 11.5,1.5C 10.8333,1.5 10.1667,1.5 9.5,1.5C 9.5,0.833333 9.5,0.166667 9.5,-0.5 Z"/></g>
<g><path style="opacity:0.694" fill="#2d90be" d="M 2.5,0.5 C 2.5,0.833333 2.5,1.16667 2.5,1.5C 2.5,1.83333 2.5,2.16667 2.5,2.5C 1.83333,2.5 1.16667,2.5 0.5,2.5C 0.833333,1.5 1.5,0.833333 2.5,0.5 Z"/></g>
<g><path style="opacity:1" fill="#65b7d0" d="M 2.5,2.5 C 2.5,2.16667 2.5,1.83333 2.5,1.5C 3.16667,1.5 3.83333,1.5 4.5,1.5C 5.16667,1.5 5.83333,1.5 6.5,1.5C 7.20895,2.40397 8.20895,2.73731 9.5,2.5C 9.5,2.83333 9.5,3.16667 9.5,3.5C 8.12656,3.34332 6.79323,3.50999 5.5,4C 6.73747,4.23209 7.73747,4.73209 8.5,5.5C 7.16667,5.5 5.83333,5.5 4.5,5.5C 4.73731,4.20895 4.40397,3.20895 3.5,2.5C 3.16667,2.5 2.83333,2.5 2.5,2.5 Z"/></g>
<g><path style="opacity:1" fill="#3699c3" d="M 8.5,-0.5 C 8.83333,-0.5 9.16667,-0.5 9.5,-0.5C 9.5,0.166667 9.5,0.833333 9.5,1.5C 9.5,1.83333 9.5,2.16667 9.5,2.5C 8.20895,2.73731 7.20895,2.40397 6.5,1.5C 7.83333,1.5 8.5,0.833333 8.5,-0.5 Z"/></g>
<g><path style="opacity:0.992" fill="#2e85ab" d="M 11.5,-0.5 C 11.8333,-0.5 12.1667,-0.5 12.5,-0.5C 13.1667,0.5 13.8333,1.5 14.5,2.5C 12.5188,3.10541 12.1854,4.10541 13.5,5.5C 12.8333,5.5 12.1667,5.5 11.5,5.5C 11.5,4.16667 11.5,2.83333 11.5,1.5C 11.5,0.833333 11.5,0.166667 11.5,-0.5 Z"/></g>
<g><path style="opacity:1" fill="#81ad85" d="M 0.5,2.5 C 1.16667,2.5 1.83333,2.5 2.5,2.5C 2.83333,2.5 3.16667,2.5 3.5,2.5C 3.5,3.5 3.5,4.5 3.5,5.5C 3.16667,5.5 2.83333,5.5 2.5,5.5C 1.09368,5.02694 0.427017,4.02694 0.5,2.5 Z"/></g>
<g><path style="opacity:1" fill="#50b3da" d="M 9.5,2.5 C 9.5,2.16667 9.5,1.83333 9.5,1.5C 10.1667,1.5 10.8333,1.5 11.5,1.5C 11.5,2.83333 11.5,4.16667 11.5,5.5C 10.8333,4.5 10.1667,3.5 9.5,2.5 Z"/></g>
<g><path style="opacity:1" fill="#adcba8" d="M 9.5,3.5 C 9.5,4.16667 9.5,4.83333 9.5,5.5C 9.16667,5.5 8.83333,5.5 8.5,5.5C 7.73747,4.73209 6.73747,4.23209 5.5,4C 6.79323,3.50999 8.12656,3.34332 9.5,3.5 Z"/></g>
<g><path style="opacity:1" fill="#2d8fb8" d="M 3.5,2.5 C 4.40397,3.20895 4.73731,4.20895 4.5,5.5C 5.83333,5.5 7.16667,5.5 8.5,5.5C 8.5,5.83333 8.5,6.16667 8.5,6.5C 7.83333,6.5 7.16667,6.5 6.5,6.5C 5.16667,6.5 4.5,7.16667 4.5,8.5C 3.59603,7.79105 3.26269,6.79105 3.5,5.5C 3.5,4.5 3.5,3.5 3.5,2.5 Z"/></g>
<g><path style="opacity:0.996" fill="#3283a6" d="M -0.5,2.5 C -0.166667,2.5 0.166667,2.5 0.5,2.5C 0.427017,4.02694 1.09368,5.02694 2.5,5.5C 1.83333,6.83333 1.16667,8.16667 0.5,9.5C 0.166667,9.5 -0.166667,9.5 -0.5,9.5C -0.5,7.16667 -0.5,4.83333 -0.5,2.5 Z"/></g>
<g><path style="opacity:1" fill="#3a95bc" d="M 9.5,2.5 C 10.1667,3.5 10.8333,4.5 11.5,5.5C 12.1667,5.5 12.8333,5.5 13.5,5.5C 14.404,4.79105 14.7373,3.79105 14.5,2.5C 14.8333,2.5 15.1667,2.5 15.5,2.5C 15.5,4.5 15.5,6.5 15.5,8.5C 15.1667,8.5 14.8333,8.5 14.5,8.5C 14.5,7.16667 13.8333,6.5 12.5,6.5C 11.6618,6.84171 11.3284,7.50838 11.5,8.5C 9.95186,8.17876 9.28519,7.17876 9.5,5.5C 9.5,4.83333 9.5,4.16667 9.5,3.5C 9.5,3.16667 9.5,2.83333 9.5,2.5 Z"/></g>
<g><path style="opacity:1" fill="#7e8a74" d="M 14.5,2.5 C 14.7373,3.79105 14.404,4.79105 13.5,5.5C 12.1854,4.10541 12.5188,3.10541 14.5,2.5 Z"/></g>
<g><path style="opacity:1" fill="#529fbd" d="M 2.5,5.5 C 2.83333,5.5 3.16667,5.5 3.5,5.5C 3.26269,6.79105 3.59603,7.79105 4.5,8.5C 5.16667,8.5 5.83333,8.5 6.5,8.5C 6.5,8.83333 6.5,9.16667 6.5,9.5C 6.16667,9.5 5.83333,9.5 5.5,9.5C 4.83333,9.5 4.16667,9.5 3.5,9.5C 2.83333,9.5 2.16667,9.5 1.5,9.5C 1.16667,9.5 0.833333,9.5 0.5,9.5C 1.16667,8.16667 1.83333,6.83333 2.5,5.5 Z"/></g>
<g><path style="opacity:1" fill="#22698d" d="M 6.5,6.5 C 6.5,7.16667 6.5,7.83333 6.5,8.5C 5.83333,8.5 5.16667,8.5 4.5,8.5C 4.5,7.16667 5.16667,6.5 6.5,6.5 Z"/></g>
<g><path style="opacity:1" fill="#2092c2" d="M 6.5,6.5 C 7.16667,6.5 7.83333,6.5 8.5,6.5C 8.5,7.83333 7.83333,8.5 6.5,8.5C 6.5,7.83333 6.5,7.16667 6.5,6.5 Z"/></g>
<g><path style="opacity:1" fill="#216a8f" d="M 12.5,6.5 C 13.8333,6.5 14.5,7.16667 14.5,8.5C 13.1667,8.5 12.5,7.83333 12.5,6.5 Z"/></g>
<g><path style="opacity:1" fill="#3faad7" d="M 8.5,5.5 C 8.83333,5.5 9.16667,5.5 9.5,5.5C 9.28519,7.17876 9.95186,8.17876 11.5,8.5C 11.5,8.83333 11.5,9.16667 11.5,9.5C 11.5,10.1667 11.5,10.8333 11.5,11.5C 11.5,11.8333 11.5,12.1667 11.5,12.5C 11.1667,12.5 10.8333,12.5 10.5,12.5C 10.7373,11.209 10.404,10.209 9.5,9.5C 8.83333,9.5 8.16667,9.5 7.5,9.5C 7.16667,9.5 6.83333,9.5 6.5,9.5C 6.5,9.16667 6.5,8.83333 6.5,8.5C 7.83333,8.5 8.5,7.83333 8.5,6.5C 8.5,6.16667 8.5,5.83333 8.5,5.5 Z"/></g>
<g><path style="opacity:0.847" fill="#49a9ce" d="M 12.5,6.5 C 12.5,7.83333 13.1667,8.5 14.5,8.5C 14.8333,8.5 15.1667,8.5 15.5,8.5C 15.5,9.83333 15.5,11.1667 15.5,12.5C 15.1667,12.5 14.8333,12.5 14.5,12.5C 13.8333,12.5 13.5,12.1667 13.5,11.5C 13.5,10.1667 12.8333,9.5 11.5,9.5C 11.5,9.16667 11.5,8.83333 11.5,8.5C 11.3284,7.50838 11.6618,6.84171 12.5,6.5 Z"/></g>
<g><path style="opacity:1" fill="#adaf69" d="M 3.5,9.5 C 4.16667,9.5 4.83333,9.5 5.5,9.5C 5.5,10.1667 5.5,10.8333 5.5,11.5C 4.83333,11.5 4.16667,11.5 3.5,11.5C 3.5,10.8333 3.5,10.1667 3.5,9.5 Z"/></g>
<g><path style="opacity:1" fill="#8acce7" d="M 7.5,9.5 C 8.16667,9.5 8.83333,9.5 9.5,9.5C 9.5,10.8333 8.83333,11.5 7.5,11.5C 7.5,10.8333 7.5,10.1667 7.5,9.5 Z"/></g>
<g><path style="opacity:1" fill="#768a7b" d="M 11.5,9.5 C 12.8333,9.5 13.5,10.1667 13.5,11.5C 12.8333,11.5 12.1667,11.5 11.5,11.5C 11.5,10.8333 11.5,10.1667 11.5,9.5 Z"/></g>
<g><path style="opacity:0.6" fill="#61b0d2" d="M -0.5,9.5 C -0.166667,9.5 0.166667,9.5 0.5,9.5C 0.833333,9.5 1.16667,9.5 1.5,9.5C 1.5,10.8333 1.5,12.1667 1.5,13.5C 0.833333,13.1667 0.166667,12.8333 -0.5,12.5C -0.5,11.5 -0.5,10.5 -0.5,9.5 Z"/></g>
<g><path style="opacity:1" fill="#247a9b" d="M 1.5,9.5 C 2.16667,9.5 2.83333,9.5 3.5,9.5C 3.5,10.1667 3.5,10.8333 3.5,11.5C 2.89022,12.391 2.55688,13.391 2.5,14.5C 1.83333,14.5 1.5,14.1667 1.5,13.5C 1.5,12.1667 1.5,10.8333 1.5,9.5 Z"/></g>
<g><path style="opacity:1" fill="#348eb2" d="M 5.5,9.5 C 5.83333,9.5 6.16667,9.5 6.5,9.5C 6.83333,9.5 7.16667,9.5 7.5,9.5C 7.5,10.1667 7.5,10.8333 7.5,11.5C 7.5,11.8333 7.5,12.1667 7.5,12.5C 6.83333,12.5 6.16667,12.5 5.5,12.5C 5.5,12.1667 5.5,11.8333 5.5,11.5C 5.5,10.8333 5.5,10.1667 5.5,9.5 Z"/></g>
<g><path style="opacity:1" fill="#7fb8cc" d="M 3.5,11.5 C 4.16667,11.5 4.83333,11.5 5.5,11.5C 5.5,11.8333 5.5,12.1667 5.5,12.5C 4.59872,13.2905 3.93205,14.2905 3.5,15.5C 3.16667,15.5 2.83333,15.5 2.5,15.5C 2.5,15.1667 2.5,14.8333 2.5,14.5C 2.55688,13.391 2.89022,12.391 3.5,11.5 Z"/></g>
<g><path style="opacity:1" fill="#3998c1" d="M 9.5,9.5 C 10.404,10.209 10.7373,11.209 10.5,12.5C 10.5,12.8333 10.5,13.1667 10.5,13.5C 9.83333,13.5 9.16667,13.5 8.5,13.5C 8.16667,13.5 7.83333,13.5 7.5,13.5C 7.5,13.1667 7.5,12.8333 7.5,12.5C 7.5,12.1667 7.5,11.8333 7.5,11.5C 8.83333,11.5 9.5,10.8333 9.5,9.5 Z"/></g>
<g><path style="opacity:0.667" fill="#4ea8b3" d="M 11.5,12.5 C 11.5,12.1667 11.5,11.8333 11.5,11.5C 12.1667,11.5 12.8333,11.5 13.5,11.5C 13.5,12.1667 13.8333,12.5 14.5,12.5C 14.1667,13.5 13.5,14.1667 12.5,14.5C 12.6716,13.5084 12.3382,12.8417 11.5,12.5 Z"/></g>
<g><path style="opacity:1" fill="#7faeb4" d="M 5.5,12.5 C 6.16667,12.5 6.83333,12.5 7.5,12.5C 7.5,12.8333 7.5,13.1667 7.5,13.5C 7.5,14.1667 7.5,14.8333 7.5,15.5C 6.83333,15.5 6.16667,15.5 5.5,15.5C 5.5,14.5 5.5,13.5 5.5,12.5 Z"/></g>
<g><path style="opacity:0.557" fill="#2988b3" d="M 10.5,12.5 C 10.8333,12.5 11.1667,12.5 11.5,12.5C 12.3382,12.8417 12.6716,13.5084 12.5,14.5C 12.5,14.8333 12.5,15.1667 12.5,15.5C 11.8333,15.5 11.1667,15.5 10.5,15.5C 10.5,14.8333 10.5,14.1667 10.5,13.5C 10.5,13.1667 10.5,12.8333 10.5,12.5 Z"/></g>
<g><path style="opacity:0.675" fill="#2b7da2" d="M 5.5,12.5 C 5.5,13.5 5.5,14.5 5.5,15.5C 4.83333,15.5 4.16667,15.5 3.5,15.5C 3.93205,14.2905 4.59872,13.2905 5.5,12.5 Z"/></g>
<g><path style="opacity:0.89" fill="#3588aa" d="M 7.5,13.5 C 7.83333,13.5 8.16667,13.5 8.5,13.5C 8.83333,14.1667 9.16667,14.8333 9.5,15.5C 8.83333,15.5 8.16667,15.5 7.5,15.5C 7.5,14.8333 7.5,14.1667 7.5,13.5 Z"/></g>
<g><path style="opacity:0.647" fill="#52a3c5" d="M 8.5,13.5 C 9.16667,13.5 9.83333,13.5 10.5,13.5C 10.5,14.1667 10.5,14.8333 10.5,15.5C 10.1667,15.5 9.83333,15.5 9.5,15.5C 9.16667,14.8333 8.83333,14.1667 8.5,13.5 Z"/></g>
</svg>
